<svg width="50" height="50" viewBox="0 0 50 50" fill="none" xmlns="http://www.w3.org/2000/svg">
<path d="M11.1667 15.2222C11.1667 13.8593 11.706 12.5522 12.666 11.5885C13.626 10.6248 14.9281 10.0833 16.2857 10.0833C17.6434 10.0833 18.9454 10.6248 19.9054 11.5885C20.8654 12.5522 21.4048 13.8593 21.4048 15.2222C21.4048 16.5851 20.8654 17.8922 19.9054 18.856C18.9454 19.8197 17.6434 20.3611 16.2857 20.3611C14.9281 20.3611 13.626 19.8197 12.666 18.856C11.706 17.8922 11.1667 16.5851 11.1667 15.2222ZM16.2857 7C14.1135 7 12.0302 7.86627 10.4942 9.40823C8.95816 10.9502 8.09524 13.0416 8.09524 15.2222C8.09524 17.4029 8.95816 19.4942 10.4942 21.0362C12.0302 22.5782 14.1135 23.4444 16.2857 23.4444C18.458 23.4444 20.5412 22.5782 22.0773 21.0362C23.6133 19.4942 24.4762 17.4029 24.4762 15.2222C24.4762 13.0416 23.6133 10.9502 22.0773 9.40823C20.5412 7.86627 18.458 7 16.2857 7ZM31.6429 17.2778C31.6429 16.46 31.9665 15.6758 32.5425 15.0975C33.1185 14.5193 33.8997 14.1944 34.7143 14.1944C35.5289 14.1944 36.3101 14.5193 36.8861 15.0975C37.4621 15.6758 37.7857 16.46 37.7857 17.2778C37.7857 18.0955 37.4621 18.8798 36.8861 19.458C36.3101 20.0363 35.5289 20.3611 34.7143 20.3611C33.8997 20.3611 33.1185 20.0363 32.5425 19.458C31.9665 18.8798 31.6429 18.0955 31.6429 17.2778ZM34.7143 11.1111C33.0851 11.1111 31.5226 11.7608 30.3706 12.9173C29.2186 14.0738 28.5714 15.6423 28.5714 17.2778C28.5714 18.9133 29.2186 20.4818 30.3706 21.6383C31.5226 22.7947 33.0851 23.4444 34.7143 23.4444C36.3435 23.4444 37.9059 22.7947 39.0579 21.6383C40.21 20.4818 40.8571 18.9133 40.8571 17.2778C40.8571 15.6423 40.21 14.0738 39.0579 12.9173C37.9059 11.7608 36.3435 11.1111 34.7143 11.1111ZM23.9643 27.5556C24.5806 27.5556 25.1683 27.6789 25.7068 27.8968C25.0747 28.1424 24.4972 28.5111 24.0077 28.9817C23.5182 29.4523 23.1262 30.0155 22.8545 30.6389H8.60714C8.19985 30.6389 7.80923 30.8013 7.52123 31.0904C7.23323 31.3796 7.07143 31.7717 7.07143 32.1806V32.7088L7.08576 32.8733C7.1001 33.0254 7.13286 33.2597 7.19838 33.5496C7.33352 34.1272 7.60381 34.898 8.13824 35.6647C9.14771 37.1139 11.3264 38.8611 16.2857 38.8611C19.1667 38.8611 21.1079 38.2712 22.4286 37.4942V40.9084C20.8089 41.5498 18.79 41.9444 16.2857 41.9444C10.495 41.9444 7.29667 39.8375 5.62171 37.4325C4.74541 36.1698 4.19776 34.707 4.02867 33.1775C4.01431 33.0367 4.00475 32.8955 4 32.7541V32.1826C3.99973 31.5751 4.1187 30.9734 4.35011 30.4121C4.58152 29.8507 4.92084 29.3406 5.34868 28.9109C5.77652 28.4812 6.2845 28.1404 6.84359 27.9078C7.40269 27.6753 8.00195 27.5556 8.60714 27.5556H23.9643Z" fill="#5C27C0"/>
<path d="M24 32.2143C24 31.3618 24.3448 30.5442 24.9586 29.9414C25.5723 29.3386 26.4047 29 27.2727 29H44.7273C45.5953 29 46.4277 29.3386 47.0414 29.9414C47.6552 30.5442 48 31.3618 48 32.2143V40.7857C48 41.6382 47.6552 42.4558 47.0414 43.0586C46.4277 43.6614 45.5953 44 44.7273 44H27.2727C26.4047 44 25.5723 43.6614 24.9586 43.0586C24.3448 42.4558 24 41.6382 24 40.7857V32.2143ZM26.1818 33.2857V35.4286C27.3391 35.4286 28.449 34.977 29.2674 34.1733C30.0857 33.3696 30.5455 32.2795 30.5455 31.1429H28.3636C28.3636 31.7112 28.1338 32.2562 27.7246 32.6581C27.3154 33.0599 26.7605 33.2857 26.1818 33.2857ZM45.8182 35.4286V33.2857C45.2395 33.2857 44.6846 33.0599 44.2754 32.6581C43.8662 32.2562 43.6364 31.7112 43.6364 31.1429H41.4545C41.4545 32.2795 41.9143 33.3696 42.7326 34.1733C43.551 34.977 44.6609 35.4286 45.8182 35.4286ZM41.4545 41.8571H43.6364C43.6364 41.2888 43.8662 40.7438 44.2754 40.3419C44.6846 39.9401 45.2395 39.7143 45.8182 39.7143V37.5714C44.6609 37.5714 43.551 38.023 42.7326 38.8267C41.9143 39.6304 41.4545 40.7205 41.4545 41.8571ZM26.1818 37.5714V39.7143C26.7605 39.7143 27.3154 39.9401 27.7246 40.3419C28.1338 40.7438 28.3636 41.2888 28.3636 41.8571H30.5455C30.5455 40.7205 30.0857 39.6304 29.2674 38.8267C28.449 38.023 27.3391 37.5714 26.1818 37.5714ZM36 40.25C37.0126 40.25 37.9838 39.8549 38.6999 39.1516C39.4159 38.4484 39.8182 37.4946 39.8182 36.5C39.8182 35.5054 39.4159 34.5516 38.6999 33.8484C37.9838 33.1451 37.0126 32.75 36 32.75C34.9874 32.75 34.0162 33.1451 33.3001 33.8484C32.5841 34.5516 32.1818 35.5054 32.1818 36.5C32.1818 37.4946 32.5841 38.4484 33.3001 39.1516C34.0162 39.8549 34.9874 40.25 36 40.25Z" fill="#AD93DF"/>
</svg>
