<svg width="51" height="50" viewBox="0 0 51 50" fill="none" xmlns="http://www.w3.org/2000/svg">
<path d="M23.3255 8.75218C21.584 8.75218 19.9138 9.44399 18.6824 10.6754C17.451 11.9068 16.7592 13.577 16.7592 15.3185C16.7592 17.06 17.451 18.7302 18.6824 19.9616C19.9138 21.193 21.584 21.8848 23.3255 21.8848C25.067 21.8848 26.7371 21.193 27.9686 19.9616C29.2 18.7302 29.8918 17.06 29.8918 15.3185C29.8918 13.577 29.2 11.9068 27.9686 10.6754C26.7371 9.44399 25.067 8.75218 23.3255 8.75218ZM13.007 15.3185C13.007 12.5819 14.0941 9.95731 16.0292 8.02222C17.9643 6.08712 20.5888 5 23.3255 5C26.0621 5 28.6867 6.08712 30.6218 8.02222C32.5569 9.95731 33.644 12.5819 33.644 15.3185C33.644 18.0551 32.5569 20.6797 30.6218 22.6148C28.6867 24.5499 26.0621 25.637 23.3255 25.637C20.5888 25.637 17.9643 24.5499 16.0292 22.6148C14.0941 20.6797 13.007 18.0551 13.007 15.3185ZM16.7592 31.2653C14.7689 31.2653 12.8601 32.0559 11.4528 33.4632C10.5217 34.3943 9.8606 35.5448 9.51974 36.7932C9.22879 37.8587 10.1502 38.7696 11.2548 38.7696H22.4812V42.5218H9.25481C7.18253 42.5218 5.50262 40.8419 5.50262 38.7696C5.50262 35.7842 6.68858 32.9211 8.79959 30.81C10.9106 28.699 13.7737 27.5131 16.7592 27.5131H22.3874V31.2653H16.7592Z" fill="#5C27C0"/>
<path d="M35.5026 27C33.6461 27 31.8656 27.7375 30.5529 29.0503C29.2401 30.363 28.5026 32.1435 28.5026 34C28.5026 35.8565 29.2401 37.637 30.5529 38.9497C31.8656 40.2625 33.6461 41 35.5026 41C37.3591 41 39.1396 40.2625 40.4524 38.9497C41.7651 37.637 42.5026 35.8565 42.5026 34C42.5026 32.1435 41.7651 30.363 40.4524 29.0503C39.1396 27.7375 37.3591 27 35.5026 27ZM24.5026 34C24.5026 32.5555 24.7871 31.1251 25.3399 29.7905C25.8928 28.4559 26.703 27.2433 27.7244 26.2218C28.7459 25.2004 29.9585 24.3901 31.2931 23.8373C32.6277 23.2845 34.0581 23 35.5026 23C36.9472 23 38.3776 23.2845 39.7121 23.8373C41.0467 24.3901 42.2594 25.2004 43.2808 26.2218C44.3022 27.2433 45.1125 28.4559 45.6653 29.7905C46.2181 31.1251 46.5026 32.5555 46.5026 34C46.5026 36.9174 45.3437 39.7153 43.2808 41.7782C41.2179 43.8411 38.42 45 35.5026 45C32.5852 45 29.7873 43.8411 27.7244 41.7782C25.6615 39.7153 24.5026 36.9174 24.5026 34ZM37.5026 29.504V33.172L40.3306 36L37.5026 38.828L33.5026 34.828V29.504H37.5026Z" fill="#AD93DF"/>
</svg>
