<svg width="24" height="24" viewBox="0 0 24 24" fill="none" xmlns="http://www.w3.org/2000/svg">
<path fill-rule="evenodd" clip-rule="evenodd" d="M1.4032 12.0001C1.4032 9.18967 2.51964 6.49434 4.50693 4.50705C6.49421 2.51977 9.18955 1.40332 12 1.40332C14.8104 1.40332 17.5058 2.51977 19.4931 4.50705C21.4804 6.49434 22.5968 9.18967 22.5968 12.0001C22.5968 14.8106 21.4804 17.5059 19.4931 19.4932C17.5058 21.4805 14.8104 22.5969 12 22.5969C9.18955 22.5969 6.49421 21.4805 4.50693 19.4932C2.51964 17.5059 1.4032 14.8106 1.4032 12.0001ZM12 2.92332C9.59268 2.92332 7.28396 3.87962 5.58173 5.58185C3.8795 7.28408 2.9232 9.5928 2.9232 12.0001C2.9232 14.4074 3.8795 16.7162 5.58173 18.4184C7.28396 20.1206 9.59268 21.0769 12 21.0769C14.4073 21.0769 16.716 20.1206 18.4183 18.4184C20.1205 16.7162 21.0768 14.4074 21.0768 12.0001C21.0768 9.5928 20.1205 7.28408 18.4183 5.58185C16.716 3.87962 14.4073 2.92332 12 2.92332ZM15.7664 8.23532C15.9164 8.38534 16.0006 8.58879 16.0006 8.80092C16.0006 9.01305 15.9164 9.2165 15.7664 9.36652L13.1312 12.0001L15.7664 14.6337C15.9166 14.7839 16.001 14.9877 16.001 15.2001C16.001 15.4126 15.9166 15.6163 15.7664 15.7665C15.6162 15.9167 15.4124 16.0011 15.2 16.0011C14.9876 16.0011 14.7838 15.9167 14.6336 15.7665L12 13.1313L9.3664 15.7665C9.29202 15.8409 9.20371 15.8999 9.10653 15.9402C9.00935 15.9804 8.90519 16.0011 8.8 16.0011C8.69481 16.0011 8.59065 15.9804 8.49346 15.9402C8.39628 15.8999 8.30798 15.8409 8.2336 15.7665C8.15922 15.6921 8.10021 15.6038 8.05996 15.5067C8.01971 15.4095 7.99899 15.3053 7.99899 15.2001C7.99899 15.0949 8.01971 14.9908 8.05996 14.8936C8.10021 14.7964 8.15922 14.7081 8.2336 14.6337L10.8688 12.0001L8.2336 9.36652C8.08338 9.2163 7.99899 9.01256 7.99899 8.80012C7.99899 8.58768 8.08338 8.38394 8.2336 8.23372C8.38382 8.0835 8.58756 7.99911 8.8 7.99911C9.01244 7.99911 9.21618 8.0835 9.3664 8.23372L12 10.8689L14.6336 8.23372C14.7079 8.15922 14.7962 8.10011 14.8934 8.05978C14.9906 8.01945 15.0948 7.99869 15.2 7.99869C15.3052 7.99869 15.4094 8.01945 15.5066 8.05978C15.6038 8.10011 15.6921 8.16082 15.7664 8.23532Z" fill="#E46363"/>
</svg>
