<svg width="24" height="24" viewBox="0 0 24 24" fill="none" xmlns="http://www.w3.org/2000/svg">
<path d="M12 22C13.3135 22.0017 14.6143 21.7438 15.8278 21.2412C17.0413 20.7385 18.1435 20.001 19.071 19.071C20.001 18.1435 20.7385 17.0413 21.2412 15.8278C21.7438 14.6143 22.0017 13.3135 22 12C22.0017 10.6865 21.7438 9.3857 21.2411 8.17222C20.7385 6.95875 20.001 5.85656 19.071 4.92901C18.1435 3.99902 17.0413 3.26151 15.8278 2.75885C14.6143 2.25619 13.3135 1.99831 12 2.00001C10.6865 1.99833 9.38569 2.25623 8.17221 2.75889C6.95874 3.26154 5.85655 3.99904 4.929 4.92901C3.99904 5.85656 3.26154 6.95875 2.75888 8.17222C2.25623 9.3857 1.99833 10.6865 2 12C1.9983 13.3135 2.25619 14.6143 2.75884 15.8278C3.2615 17.0413 3.99901 18.1435 4.929 19.071C5.85655 20.001 6.95874 20.7385 8.17221 21.2411C9.38569 21.7438 10.6865 22.0017 12 22Z" stroke="#56DF4A" stroke-width="1.5" stroke-linejoin="round"/>
<path d="M8 12L11 15L17 9" stroke="#56DF4A" stroke-width="1.5" stroke-linecap="round" stroke-linejoin="round"/>
</svg>
