<svg width="132" height="26" viewBox="0 0 132 26" fill="none" xmlns="http://www.w3.org/2000/svg">
<g clip-path="url(#clip0_1_87)">
<path d="M131.498 11.7636V9.6229H128.637V6.29495L128.541 6.3225L125.854 7.08646L125.801 7.10141V9.62301H121.559V8.21827C121.559 7.56417 121.717 7.06362 122.027 6.7298C122.335 6.39998 122.776 6.23231 123.338 6.23231C123.742 6.23231 124.16 6.32074 124.581 6.49512L124.687 6.53893V4.2845L124.637 4.26754C124.244 4.13637 123.71 4.07031 123.048 4.07031C122.213 4.07031 121.455 4.23905 120.794 4.57346C120.132 4.90833 119.612 5.3864 119.247 5.99422C118.884 6.60133 118.7 7.30253 118.7 8.0785V9.6229H116.708V11.7636H118.7V20.7819H121.559V11.7636H125.801V17.4946C125.801 19.8548 126.999 21.0509 129.362 21.0509C129.75 21.0509 130.159 21.0087 130.576 20.9259C131.001 20.8409 131.29 20.756 131.461 20.6653L131.498 20.6446V18.4841L131.382 18.5556C131.227 18.6517 131.033 18.7302 130.807 18.7886C130.579 18.8481 130.389 18.8779 130.242 18.8779C129.688 18.8779 129.279 18.7393 129.025 18.4658C128.768 18.1897 128.637 17.7071 128.637 17.0319V11.7636H131.498ZM110.321 18.8782C109.283 18.8782 108.465 18.5584 107.888 17.9285C107.308 17.2953 107.014 16.3927 107.014 15.2458C107.014 14.0625 107.308 13.1364 107.888 12.4921C108.465 11.852 109.276 11.5271 110.298 11.5271C111.29 11.5271 112.079 11.8374 112.644 12.4498C113.213 13.0654 113.501 13.9841 113.501 15.1811C113.501 16.3929 113.23 17.3237 112.695 17.9464C112.164 18.5643 111.365 18.8782 110.321 18.8782ZM110.448 9.35408C108.468 9.35408 106.895 9.89325 105.774 10.9566C104.653 12.0202 104.085 13.4919 104.085 15.3314C104.085 17.0785 104.639 18.4839 105.733 19.5077C106.828 20.5319 108.317 21.0507 110.159 21.0507C112.078 21.0507 113.62 20.504 114.741 19.4259C115.862 18.3489 116.43 16.8911 116.43 15.0946C116.43 13.3201 115.897 11.9043 114.845 10.8873C113.793 9.86982 112.314 9.35408 110.448 9.35408ZM99.4738 9.35408C98.1268 9.35408 97.0125 9.67424 96.1613 10.3055C95.3049 10.9405 94.8705 11.7734 94.8705 12.7812C94.8705 13.305 94.9642 13.7704 95.1488 14.1651C95.3344 14.5611 95.6217 14.9097 96.0034 15.2023C96.3822 15.4926 96.9669 15.7966 97.7416 16.1059C98.393 16.355 98.8787 16.5656 99.1873 16.7317C99.4889 16.8944 99.7029 17.0579 99.8238 17.2173C99.9413 17.3732 100.001 17.5865 100.001 17.8498C100.001 18.5995 99.3967 18.9643 98.1534 18.9643C97.6922 18.9643 97.1662 18.8748 96.59 18.6984C96.0179 18.5247 95.4779 18.2703 94.989 17.9441L94.8702 17.865V20.4233L94.9138 20.4422C95.3184 20.6157 95.8286 20.7621 96.4299 20.8773C97.0301 20.9925 97.5754 21.0512 98.0491 21.0512C99.5108 21.0512 100.688 20.7295 101.547 20.0945C102.411 19.4551 102.849 18.6026 102.849 17.5599C102.849 16.8077 102.614 16.1627 102.149 15.6425C101.687 15.1265 100.886 14.6528 99.7682 14.2341C98.8778 13.902 98.3075 13.6264 98.0721 13.4148C97.8453 13.2104 97.7301 12.9213 97.7301 12.5552C97.7301 12.2307 97.8723 11.9707 98.1641 11.7602C98.4583 11.5486 98.8677 11.4409 99.3812 11.4409C99.8577 11.4409 100.345 11.5109 100.83 11.648C101.314 11.785 101.74 11.9686 102.095 12.1931L102.212 12.2673V9.8405L102.167 9.8226C101.84 9.69202 101.407 9.58027 100.882 9.48961C100.36 9.39953 99.8861 9.35408 99.4738 9.35408ZM87.4152 18.8782C86.3775 18.8782 85.5588 18.5584 84.9822 17.9285C84.4018 17.2953 84.1083 16.3929 84.1083 15.2458C84.1083 14.0625 84.4022 13.1364 84.9829 12.4921C85.5595 11.852 86.3699 11.5271 87.3923 11.5271C88.3835 11.5271 89.1728 11.8374 89.7384 12.4498C90.3068 13.0654 90.5951 13.9841 90.5951 15.1811C90.5951 16.3929 90.3238 17.3237 89.789 17.9464C89.2579 18.5643 88.4597 18.8782 87.4152 18.8782ZM87.5427 9.35408C85.5619 9.35408 83.9888 9.89325 82.868 10.9566C81.7472 12.0202 81.1786 13.4919 81.1786 15.3314C81.1786 17.0793 81.7337 18.4839 82.8278 19.5077C83.9219 20.5319 85.4108 21.0507 87.253 21.0507C89.1723 21.0507 90.7143 20.504 91.8353 19.4259C92.9559 18.3489 93.524 16.8911 93.524 15.0946C93.524 13.3201 92.991 11.9043 91.9394 10.8873C90.8872 9.86982 89.4078 9.35408 87.5427 9.35408ZM76.8376 11.5554V9.6229H74.0127V20.7816H76.8376V15.0735C76.8376 14.1029 77.0744 13.3055 77.5418 12.7032C78.0032 12.1081 78.618 11.8066 79.3688 11.8066C79.6232 11.8066 79.9089 11.8455 80.2182 11.9227C80.5243 11.9993 80.7461 12.0826 80.8769 12.1702L80.9956 12.2501V9.60382L80.9499 9.58557C80.6868 9.48172 80.3146 9.42932 79.8437 9.42932C79.1338 9.42932 78.4985 9.64127 77.9544 10.0586C77.4768 10.4254 77.1316 10.9283 76.8676 11.5554H76.8376ZM68.9537 9.35408C67.6577 9.35408 66.5018 9.6123 65.5185 10.1213C64.5332 10.6315 63.7712 11.3599 63.2528 12.2862C62.7367 13.2101 62.4746 14.2894 62.4746 15.4931C62.4746 16.5474 62.7287 17.5149 63.2309 18.3677C63.7334 19.2218 64.4445 19.89 65.3448 20.3535C66.2437 20.8164 67.2828 21.0511 68.4331 21.0511C69.7757 21.0511 70.9219 20.8017 71.8409 20.3098L71.878 20.29V17.8852L71.7593 17.9658C71.343 18.2476 70.8778 18.4725 70.3772 18.6345C69.8779 18.7964 69.4227 18.8782 69.0236 18.8782C67.9151 18.8782 67.0252 18.5559 66.3793 17.9206C65.732 17.2844 65.4038 16.391 65.4038 15.2669C65.4038 14.1356 65.7461 13.2193 66.4206 12.5432C67.0932 11.8691 67.9847 11.5271 69.0702 11.5271C69.9987 11.5271 70.9035 11.8193 71.7595 12.3962L71.878 12.4762V9.94235L71.8397 9.92233C71.5176 9.75478 71.0782 9.61642 70.5328 9.51151C69.9897 9.40683 69.4585 9.35408 68.9537 9.35408ZM60.529 9.62301H57.7041V20.7816H60.529V9.62301ZM59.1454 4.86936C58.6805 4.86936 58.275 5.01643 57.9418 5.30786C57.6073 5.60011 57.4376 5.96808 57.4376 6.40234C57.4376 6.82977 57.6053 7.19102 57.9366 7.4755C58.2659 7.75916 58.6726 7.90293 59.1456 7.90293C59.6184 7.90293 60.0267 7.75916 60.3598 7.47598C60.6952 7.19102 60.8652 6.82988 60.8652 6.40234C60.8652 5.98327 60.6997 5.61907 60.3737 5.31963C60.0478 5.02078 59.6345 4.86936 59.1454 4.86936ZM52.0971 8.79971V20.7816H54.98V5.21095H50.9899L45.9182 16.7764L40.9964 5.21095H36.8438V20.7815H39.553V8.79853H39.646L44.8433 20.7816H46.8879L52.0041 8.79971H52.0971Z" fill="#1F1F1F"/>
<path d="M13.7892 12.3559H0.5V0.0078125H13.7892V12.3559Z" fill="#1F1F1F"/>
<path d="M28.4609 12.3559H15.1719V0.0078125H28.4609V12.3559Z" fill="#1F1F1F"/>
<path d="M13.7889 25.9965H0.5V13.6484H13.7889V25.9965Z" fill="#1F1F1F"/>
<path d="M28.4609 25.9965H15.1719V13.6484H28.4609V25.9965Z" fill="#1F1F1F"/>
</g>
<defs>
<clipPath id="clip0_1_87">
<rect width="131" height="26" fill="white" transform="translate(0.5)"/>
</clipPath>
</defs>
</svg>
