<svg width="29" height="29" viewBox="0 0 29 29" fill="none" xmlns="http://www.w3.org/2000/svg">
<path d="M7.66071 1.76786C6.95742 1.76786 6.28292 2.04724 5.78562 2.54455C5.28831 3.04185 5.00893 3.71635 5.00893 4.41964C5.00893 5.12294 5.28831 5.79743 5.78562 6.29474C6.28292 6.79204 6.95742 7.07143 7.66071 7.07143C8.36401 7.07143 9.0385 6.79204 9.53581 6.29474C10.0331 5.79743 10.3125 5.12294 10.3125 4.41964C10.3125 3.71635 10.0331 3.04185 9.53581 2.54455C9.0385 2.04724 8.36401 1.76786 7.66071 1.76786ZM3.24107 4.41964C3.24107 3.24748 3.70671 2.12333 4.53555 1.29448C5.3644 0.46564 6.48855 0 7.66071 0C8.83288 0 9.95703 0.46564 10.7859 1.29448C11.6147 2.12333 12.0804 3.24748 12.0804 4.41964C12.0804 5.5918 11.6147 6.71596 10.7859 7.5448C9.95703 8.37364 8.83288 8.83928 7.66071 8.83928C6.48855 8.83928 5.3644 8.37364 4.53555 7.5448C3.70671 6.71596 3.24107 5.5918 3.24107 4.41964ZM0 12.9431C0 11.6525 1.04539 10.6071 2.33593 10.6071H8.93593C8.71241 11.1716 8.58263 11.7687 8.55171 12.375H2.33593C2.18527 12.375 2.04078 12.4348 1.93424 12.5414C1.82771 12.6479 1.76786 12.7924 1.76786 12.9431V13.4062C1.76786 13.609 1.77021 14.8359 2.48325 15.9956C3.09611 16.9903 4.31475 18.0687 6.90643 18.2431C6.30711 18.6325 5.84022 19.1947 5.56757 19.8554C3.20454 19.4181 1.78789 18.2384 0.978214 16.9207C-5.96046e-08 15.3332 0 13.6926 0 13.4098V12.9431ZM19.3486 10.6071C19.5678 11.1587 19.7022 11.7539 19.7328 12.375H25.9498C26.2633 12.375 26.5179 12.6296 26.5179 12.9431V13.4062C26.5179 13.609 26.5155 14.8359 25.8013 15.9956C25.1896 16.9903 23.9721 18.0687 21.3793 18.2431C21.9745 18.6297 22.4447 19.1919 22.7181 19.8554C25.0812 19.4181 26.4978 18.2384 27.3075 16.9207C28.2857 15.332 28.2857 13.6915 28.2857 13.4086V12.9431C28.2857 12.3235 28.0396 11.7294 27.6015 11.2913C27.1635 10.8532 26.5693 10.6071 25.9498 10.6071H19.3486ZM20.625 1.76786C19.9217 1.76786 19.2472 2.04724 18.7499 2.54455C18.2526 3.04185 17.9732 3.71635 17.9732 4.41964C17.9732 5.12294 18.2526 5.79743 18.7499 6.29474C19.2472 6.79204 19.9217 7.07143 20.625 7.07143C21.3283 7.07143 22.0028 6.79204 22.5001 6.29474C22.9974 5.79743 23.2768 5.12294 23.2768 4.41964C23.2768 3.71635 22.9974 3.04185 22.5001 2.54455C22.0028 2.04724 21.3283 1.76786 20.625 1.76786ZM16.2054 4.41964C16.2054 3.24748 16.671 2.12333 17.4998 1.29448C18.3287 0.46564 19.4528 0 20.625 0C21.7972 0 22.9213 0.46564 23.7502 1.29448C24.579 2.12333 25.0446 3.24748 25.0446 4.41964C25.0446 5.5918 24.579 6.71596 23.7502 7.5448C22.9213 8.37364 21.7972 8.83928 20.625 8.83928C19.4528 8.83928 18.3287 8.37364 17.4998 7.5448C16.671 6.71596 16.2054 5.5918 16.2054 4.41964ZM6.48214 21.1931C6.48214 19.9025 7.52754 18.8571 8.81807 18.8571H19.4676C20.7582 18.8571 21.8036 19.9025 21.8036 21.1931V21.6586C21.8036 21.9415 21.8036 23.582 20.8254 25.1707C19.8 26.8396 17.8035 28.2857 14.1429 28.2857C10.4822 28.2857 8.48571 26.8384 7.46036 25.1719C6.48214 23.582 6.48214 21.9426 6.48214 21.6586V21.1931ZM8.81807 20.625C8.66741 20.625 8.52292 20.6848 8.41638 20.7914C8.30985 20.8979 8.25 21.0424 8.25 21.1931V21.6562C8.25 21.859 8.25236 23.0859 8.96539 24.2456C9.63482 25.3322 11.0267 26.5179 14.1429 26.5179C17.259 26.5179 18.6509 25.3322 19.3191 24.2456C20.0334 23.087 20.0357 21.859 20.0357 21.6562V21.1931C20.0357 21.0424 19.9759 20.8979 19.8693 20.7914C19.7628 20.6848 19.6183 20.625 19.4676 20.625H8.81807ZM11.4911 12.6696C11.4911 12.3214 11.5597 11.9766 11.6929 11.6548C11.8262 11.3331 12.0215 11.0408 12.2678 10.7945C12.514 10.5483 12.8063 10.353 13.1281 10.2197C13.4498 10.0864 13.7946 10.0179 14.1429 10.0179C14.4911 10.0179 14.8359 10.0864 15.1576 10.2197C15.4794 10.353 15.7717 10.5483 16.018 10.7945C16.2642 11.0408 16.4595 11.3331 16.5928 11.6548C16.7261 11.9766 16.7946 12.3214 16.7946 12.6696C16.7946 13.3729 16.5153 14.0474 16.018 14.5447C15.5206 15.042 14.8462 15.3214 14.1429 15.3214C13.4396 15.3214 12.7651 15.042 12.2678 14.5447C11.7705 14.0474 11.4911 13.3729 11.4911 12.6696ZM14.1429 8.25C12.9707 8.25 11.8465 8.71564 11.0177 9.54448C10.1889 10.3733 9.72321 11.4975 9.72321 12.6696C9.72321 13.8418 10.1889 14.966 11.0177 15.7948C11.8465 16.6236 12.9707 17.0893 14.1429 17.0893C15.315 17.0893 16.4392 16.6236 17.268 15.7948C18.0969 14.966 18.5625 13.8418 18.5625 12.6696C18.5625 11.4975 18.0969 10.3733 17.268 9.54448C16.4392 8.71564 15.315 8.25 14.1429 8.25Z" fill="#5C5C5C"/>
</svg>
