<svg width="36" height="36" viewBox="0 0 36 36" fill="none" xmlns="http://www.w3.org/2000/svg">
<path fill-rule="evenodd" clip-rule="evenodd" d="M6 1C6 0.734784 6.10536 0.48043 6.29289 0.292893C6.48043 0.105357 6.73478 0 7 0C7.26522 0 7.51957 0.105357 7.70711 0.292893C7.89464 0.48043 8 0.734784 8 1V6C8 6.26522 7.89464 6.51957 7.70711 6.70711C7.51957 6.89464 7.26522 7 7 7C6.73478 7 6.48043 6.89464 6.29289 6.70711C6.10536 6.51957 6 6.26522 6 6V5H3C2.73478 5 2.48043 5.10536 2.29289 5.29289C2.10536 5.48043 2 5.73478 2 6V10H28V6C28 5.73478 27.8946 5.48043 27.7071 5.29289C27.5196 5.10536 27.2652 5 27 5H24V3H27C27.7956 3 28.5587 3.31607 29.1213 3.87868C29.6839 4.44129 30 5.20435 30 6V22.07C31.7515 22.3232 33.3422 23.2303 34.452 24.6088C35.5618 25.9874 36.1083 27.7351 35.9816 29.5003C35.8548 31.2655 35.0643 32.9172 33.769 34.1231C32.4737 35.329 30.7697 35.9996 29 36C27.8714 36.0007 26.7593 35.7283 25.7589 35.2058C24.7585 34.6834 23.8994 33.9266 23.255 33H3C2.20435 33 1.44129 32.6839 0.87868 32.1213C0.316071 31.5587 0 30.7956 0 30V6C0 5.20435 0.316071 4.44129 0.87868 3.87868C1.44129 3.31607 2.20435 3 3 3H6V1ZM22 29C21.9998 27.3165 22.6062 25.6893 23.7082 24.4165C24.8101 23.1438 26.3338 22.3107 28 22.07V12H2V30C2 30.2652 2.10536 30.5196 2.29289 30.7071C2.48043 30.8946 2.73478 31 3 31H22.29C22.0971 30.3509 21.9994 29.6772 22 29ZM29 34C30.3261 34 31.5979 33.4732 32.5355 32.5355C33.4732 31.5979 34 30.3261 34 29C34 27.6739 33.4732 26.4021 32.5355 25.4645C31.5979 24.5268 30.3261 24 29 24C27.6739 24 26.4021 24.5268 25.4645 25.4645C24.5268 26.4021 24 27.6739 24 29C24 30.3261 24.5268 31.5979 25.4645 32.5355C26.4021 33.4732 27.6739 34 29 34Z" fill="#5C27C0"/>
</svg>
