<svg width="141" height="42" viewBox="0 0 141 42" fill="none" xmlns="http://www.w3.org/2000/svg">
<path d="M21.4948 0C9.89992 0 0.5 9.40195 0.5 20.9996C0.5 32.5985 9.89992 42 21.4948 42C33.0901 42 42.4895 32.5985 42.4895 20.9996C42.4895 9.4027 33.0906 0.0010023 21.4945 0.0010023L21.4948 0ZM31.1228 30.2875C30.7458 30.9061 29.94 31.1 29.3235 30.7231C24.3934 27.7091 18.1879 27.0283 10.8799 28.6981C10.1757 28.8596 9.47371 28.418 9.31327 27.7139C9.15206 27.0095 9.59154 26.3073 10.2975 26.1468C18.295 24.318 25.155 25.1052 30.6888 28.4875C31.3056 28.8662 31.5011 29.6711 31.1226 30.288L31.1228 30.2875ZM33.6925 24.5703C33.2177 25.3409 32.2104 25.5826 31.441 25.1094C25.7988 21.6403 17.1954 20.6355 10.5204 22.6622C9.65472 22.9238 8.7404 22.4358 8.47766 21.5714C8.21693 20.7055 8.70506 19.7927 9.56923 19.5294C17.1939 17.2153 26.6725 18.3362 33.1533 22.3197C33.9229 22.7936 34.1661 23.8017 33.6923 24.5705L33.6925 24.5703ZM33.9132 18.6161C27.1456 14.5961 15.9827 14.2264 9.52233 16.1877C8.48493 16.5024 7.38784 15.9166 7.07346 14.8789C6.75907 13.8408 7.34422 12.7442 8.38238 12.4287C15.7985 10.1768 28.1269 10.6119 35.9173 15.2378C36.8504 15.7917 37.1565 16.9971 36.6034 17.9292C36.0519 18.8626 34.8435 19.1703 33.9134 18.6161H33.9132ZM57.6198 19.3864C53.9948 18.5218 53.3495 17.915 53.3495 16.6398C53.3495 15.4351 54.4835 14.6244 56.1697 14.6244C57.8043 14.6244 59.4251 15.24 61.1244 16.5074C61.1758 16.5458 61.2402 16.5611 61.3036 16.551C61.3671 16.5415 61.4232 16.5066 61.4603 16.4542L63.2303 13.9586C63.303 13.8558 63.2832 13.7141 63.1852 13.6356C61.1627 12.0124 58.8853 11.2233 56.2234 11.2233C52.3094 11.2233 49.5754 13.5727 49.5754 16.9342C49.5754 20.539 51.9338 21.8154 56.0093 22.8006C59.478 23.5998 60.0634 24.2694 60.0634 25.4663C60.0634 26.7926 58.8796 27.6171 56.9745 27.6171C54.8586 27.6171 53.1327 26.9042 51.202 25.2318C51.1541 25.1904 51.0884 25.1716 51.0278 25.1751C50.9638 25.1804 50.9054 25.21 50.8648 25.2589L48.8802 27.6214C48.797 27.7194 48.8075 27.8658 48.9038 27.9506C51.1501 29.9565 53.9129 31.016 56.8943 31.016C61.1119 31.016 63.8373 28.7109 63.8373 25.1433C63.8448 22.1316 62.0423 20.464 57.6273 19.3897L57.6198 19.3864ZM73.3791 15.8105C71.5509 15.8105 70.0515 16.5307 68.815 18.0065V16.3454C68.815 16.2143 68.7087 16.1074 68.5778 16.1074H65.332C65.2008 16.1074 65.0948 16.2143 65.0948 16.3454V34.8023C65.0948 34.9334 65.2008 35.0402 65.332 35.0402H68.5778C68.7087 35.0402 68.815 34.9334 68.815 34.8023V28.9762C70.0517 30.3645 71.5515 31.0428 73.3791 31.0428C76.7759 31.0428 80.2146 28.4273 80.2146 23.4275C80.2196 18.4265 76.7799 15.8103 73.3828 15.8103L73.3791 15.8105ZM76.4402 23.4275C76.4402 25.9736 74.8723 27.7502 72.6272 27.7502C70.4077 27.7502 68.7335 25.8928 68.7335 23.4275C68.7335 20.9625 70.4077 19.1048 72.6272 19.1048C74.8359 19.1046 76.4404 20.9221 76.4404 23.4273L76.4402 23.4275ZM89.0281 15.8105C84.6535 15.8105 81.2264 19.1798 81.2264 23.4819C81.2264 27.7372 84.63 31.0711 88.9744 31.0711C93.3645 31.0711 96.8022 27.7131 96.8022 23.4275C96.8022 19.1567 93.3876 15.811 89.0278 15.811L89.0281 15.8105ZM89.0281 27.7756C86.7013 27.7756 84.9471 25.9056 84.9471 23.4263C84.9471 20.9364 86.6406 19.1296 88.9744 19.1296C91.3162 19.1296 93.0822 20.9996 93.0822 23.4807C93.0822 25.97 91.3774 27.7756 89.0283 27.7756H89.0281ZM106.144 16.1074H102.572V12.4548C102.572 12.3239 102.466 12.2171 102.335 12.2171H99.0896C98.9582 12.2171 98.8517 12.3239 98.8517 12.4548V16.1074H97.291C97.1604 16.1074 97.0546 16.2143 97.0546 16.3454V19.1357C97.0546 19.2666 97.1604 19.3737 97.291 19.3737H98.8517V26.5935C98.8517 29.5111 100.304 30.9904 103.167 30.9904C104.331 30.9904 105.297 30.7499 106.207 30.2336C106.281 30.1922 106.327 30.1125 106.327 30.0277V27.3706C106.327 27.2886 106.285 27.2111 106.214 27.1682C106.144 27.1238 106.056 27.1216 105.983 27.1574C105.358 27.4722 104.754 27.6173 104.078 27.6173C103.036 27.6173 102.572 27.1444 102.572 26.0844V19.3749H106.144C106.275 19.3749 106.38 19.2681 106.38 19.137V16.3469C106.385 16.2158 106.28 16.109 106.147 16.109L106.144 16.1074ZM118.589 16.1217V15.6731C118.589 14.3533 119.095 13.7648 120.229 13.7648C120.906 13.7648 121.449 13.8992 122.058 14.1023C122.133 14.1259 122.211 14.1141 122.272 14.0692C122.335 14.0243 122.37 13.9523 122.37 13.8761V11.1403C122.37 11.0357 122.303 10.9432 122.202 10.9123C121.559 10.721 120.736 10.5246 119.505 10.5246C116.507 10.5246 114.922 12.2133 114.922 15.4063V16.0934H113.362C113.232 16.0934 113.124 16.2002 113.124 16.3311V19.1357C113.124 19.2666 113.232 19.3736 113.362 19.3736H114.922V30.5099C114.922 30.641 115.028 30.7479 115.159 30.7479H118.404C118.536 30.7479 118.642 30.641 118.642 30.5099V19.3744H121.673L126.315 30.5079C125.788 31.6777 125.27 31.9104 124.562 31.9104C123.991 31.9104 123.388 31.7397 122.773 31.4026C122.715 31.3708 122.646 31.3655 122.584 31.3848C122.522 31.4066 122.47 31.4528 122.443 31.513L121.343 33.9271C121.291 34.0412 121.336 34.1751 121.445 34.2343C122.594 34.8564 123.631 35.122 124.912 35.122C127.309 35.122 128.633 34.0053 129.801 31.0011L135.432 16.4467C135.461 16.3735 135.452 16.2907 135.407 16.2258C135.363 16.1613 135.291 16.1225 135.212 16.1225H131.833C131.732 16.1225 131.641 16.1869 131.608 16.282L128.147 26.1717L124.355 16.2754C124.321 16.1834 124.232 16.1225 124.134 16.1225H118.588L118.589 16.1217ZM111.373 16.1074H108.127C107.996 16.1074 107.89 16.2143 107.89 16.3454V30.5099C107.89 30.641 107.996 30.7479 108.127 30.7479H111.373C111.504 30.7479 111.611 30.641 111.611 30.5099V16.3464C111.611 16.3151 111.605 16.2841 111.593 16.2552C111.581 16.2263 111.564 16.2 111.542 16.1779C111.52 16.1558 111.493 16.1382 111.464 16.1263C111.435 16.1144 111.404 16.1083 111.373 16.1084L111.373 16.1074ZM109.769 9.658C108.483 9.658 107.44 10.6992 107.44 11.9853C107.44 13.2723 108.483 14.3147 109.769 14.3147C111.054 14.3147 112.097 13.2723 112.097 11.9853C112.097 10.6994 111.054 9.658 109.77 9.658H109.769ZM138.204 20.6616C136.919 20.6616 135.92 19.6297 135.92 18.3766C135.92 17.1235 136.932 16.0798 138.216 16.0798C139.5 16.0798 140.5 17.1115 140.5 18.3636C140.5 19.6167 139.487 20.6616 138.204 20.6616H138.204ZM138.216 16.307C137.046 16.307 136.161 17.2374 136.161 18.3766C136.161 19.5153 137.04 20.4331 138.205 20.4331C139.374 20.4331 140.261 19.5036 140.261 18.3636C140.261 17.2248 139.381 16.307 138.217 16.307H138.216ZM138.723 18.5985L139.369 19.5033H138.824L138.242 18.6733H137.742V19.5033H137.286V17.105H138.355C138.913 17.105 139.279 17.3901 139.279 17.8701C139.281 18.2633 139.053 18.5035 138.725 18.5985H138.723V18.5985ZM138.337 17.5165H137.742V18.2751H138.337C138.633 18.2751 138.811 18.1299 138.811 17.8954C138.811 17.6487 138.633 17.5165 138.337 17.5165H138.337V17.5165Z" fill="#343434"/>
</svg>
