<svg width="25" height="25" viewBox="0 0 25 25" fill="none" xmlns="http://www.w3.org/2000/svg">
<path d="M24.2151 8.15235C25.21 10.8245 25.2606 13.7567 24.3584 16.4616C23.4563 19.1666 21.6558 21.4814 19.2561 23.0215C16.8564 24.5615 14.002 25.2342 11.1672 24.9276C8.33231 24.621 5.68771 23.3536 3.67278 21.3361C1.40939 19.0801 0.0968137 16.0425 0.00514493 12.8481C-0.0865239 9.65382 1.04969 6.54587 3.17998 4.16385C5.31027 1.78184 8.27255 0.306984 11.4573 0.0427846C14.642 -0.221414 17.8068 0.745145 20.3005 2.74356L22.625 0.417904C22.754 0.288816 22.9073 0.186417 23.076 0.116554C23.2446 0.0466918 23.4254 0.0107342 23.608 0.0107342C23.7905 0.0107342 23.9713 0.0466918 24.14 0.116554C24.3086 0.186417 24.4619 0.288816 24.591 0.417904C24.72 0.546993 24.8224 0.700244 24.8923 0.868907C24.9622 1.03757 24.9981 1.21834 24.9981 1.4009C24.9981 1.58346 24.9622 1.76423 24.8923 1.93289C24.8224 2.10156 24.72 2.25481 24.591 2.3839L13.4889 13.486C13.3598 13.6151 13.2065 13.7175 13.0379 13.7873C12.8692 13.8572 12.6884 13.8931 12.5059 13.8931C12.3233 13.8931 12.1425 13.8572 11.9739 13.7873C11.8052 13.7175 11.652 13.6151 11.5229 13.486C11.3938 13.3569 11.2914 13.2036 11.2215 13.035C11.1517 12.8663 11.1157 12.6855 11.1157 12.503C11.1157 12.3204 11.1517 12.1396 11.2215 11.971C11.2914 11.8023 11.3938 11.6491 11.5229 11.52L14.2984 8.74446C13.5161 8.37072 12.6367 8.25051 11.7829 8.40061C10.929 8.5507 10.1433 8.96361 9.53537 9.58172C8.92746 10.1998 8.52767 10.9923 8.3918 11.8485C8.25593 12.7048 8.39074 13.5821 8.77744 14.358C9.16413 15.1339 9.78342 15.7698 10.5489 16.1769C11.3143 16.5839 12.1878 16.7419 13.0473 16.6286C13.9068 16.5154 14.7096 16.1367 15.3435 15.5454C15.9775 14.954 16.411 14.1795 16.5836 13.3299C16.6563 12.969 16.8693 12.6518 17.1759 12.4481C17.4824 12.2443 17.8574 12.1707 18.2182 12.2434C18.5791 12.316 18.8963 12.5291 19.1 12.8357C19.3038 13.1422 19.3774 13.5172 19.3047 13.878C19.0091 15.3342 18.2539 16.657 17.1501 17.6518C16.0464 18.6466 14.6525 19.2608 13.1735 19.4041C11.6945 19.5473 10.2087 19.212 8.93453 18.4475C7.66041 17.683 6.66535 16.5296 6.09581 15.1572C5.52626 13.7848 5.41231 12.2659 5.77073 10.8239C6.12914 9.38184 6.94099 8.09297 8.08679 7.14692C9.23259 6.20088 10.6518 5.64763 12.1356 5.5686C13.6194 5.48957 15.0893 5.88894 16.3292 6.70792L18.3217 4.72227C16.45 3.3244 14.1372 2.64785 11.8072 2.81661C9.47716 2.98537 7.28599 3.98814 5.63522 5.64115C3.98445 7.29415 2.98466 9.48668 2.81906 11.8169C2.65346 14.1472 3.33314 16.4591 4.73356 18.3289C6.13397 20.1987 8.16131 21.5013 10.4441 21.9979C12.7268 22.4944 15.112 22.1518 17.1626 21.0326C19.2133 19.9135 20.7919 18.0929 21.6093 15.9044C22.4266 13.7159 22.428 11.3062 21.6131 9.11684C21.5482 8.94567 21.5178 8.76336 21.5237 8.58041C21.5296 8.39745 21.5716 8.21747 21.6473 8.05082C21.7231 7.88418 21.831 7.73416 21.965 7.60942C22.099 7.48467 22.2563 7.38766 22.4279 7.32397C22.5995 7.26029 22.782 7.23118 22.9649 7.23833C23.1479 7.24548 23.3275 7.28874 23.4937 7.36563C23.6598 7.44252 23.8091 7.55152 23.9329 7.68634C24.0567 7.82116 24.1526 7.9803 24.2151 8.15235Z" fill="#F6F6F6"/>
</svg>
