<svg width="51" height="50" viewBox="0 0 51 50" fill="none" xmlns="http://www.w3.org/2000/svg">
<g clip-path="url(#clip0_1_435)">
<path d="M19.3848 14.2318H17.3097L14.211 26.5651H15.7958L16.5111 23.6745H20.0816L20.7785 26.5651H22.4157L19.3848 14.2318ZM16.7192 22.4365L18.2871 15.6964H18.3565L19.8735 22.4381L16.7192 22.4365ZM23.8279 26.5651V14.2318H25.3695V26.5651H23.8279ZM24.1162 28.1068H12.6693V12.6901H28.086V20.0593C29.9107 18.881 32.1177 18.4473 34.2526 18.8475V15.7734H31.1693V12.6901C31.1669 11.8731 30.8412 11.0903 30.2635 10.5126C29.6858 9.93484 28.903 9.60921 28.086 9.60677H25.0026V6.52344H21.9193V9.60677H18.836V6.52344H15.7526V9.60677H12.6693C11.8523 9.60921 11.0694 9.93484 10.4917 10.5126C9.91403 11.0903 9.5884 11.8731 9.58596 12.6901V15.7734H6.50262V18.8568H9.58596V21.9401H6.50262V25.0234H9.58596V28.1068C9.5884 28.9238 9.91403 29.7066 10.4917 30.2843C11.0694 30.862 11.8523 31.1877 12.6693 31.1901H15.7526V34.2734H18.836V31.1901H21.9193V34.2734H25.0026V31.2024C24.5138 30.236 24.213 29.1855 24.1162 28.1068Z" fill="#AD93DF"/>
<path d="M27.3125 25.7943C27.3125 24.7271 27.629 23.6838 28.2219 22.7965C28.8148 21.9092 29.6575 21.2176 30.6435 20.8092C31.6294 20.4008 32.7143 20.2939 33.761 20.5021C34.8077 20.7103 35.7692 21.2242 36.5238 21.9788C37.2784 22.7335 37.7923 23.6949 38.0005 24.7416C38.2087 25.7883 38.1019 26.8732 37.6935 27.8592C37.2851 28.8451 36.5935 29.6878 35.7061 30.2807C34.8188 30.8736 33.7755 31.1901 32.7084 31.1901C31.9997 31.1903 31.298 31.0509 30.6432 30.7798C29.9885 30.5087 29.3936 30.1112 28.8925 29.6102C28.3914 29.1091 27.9939 28.5142 27.7228 27.8594C27.4517 27.2047 27.3123 26.5029 27.3125 25.7943ZM32.7084 34.2734C29.107 34.2734 21.9167 36.0818 21.9167 39.6693V41.9818H43.5V39.6693C43.5 36.0803 36.3097 34.2734 32.7084 34.2734Z" fill="#5C27C0"/>
</g>
<defs>
<clipPath id="clip0_1_435">
<rect width="37" height="37" fill="white" transform="translate(6.50262 6.52344)"/>
</clipPath>
</defs>
</svg>
