<svg width="51" height="50" viewBox="0 0 51 50" fill="none" xmlns="http://www.w3.org/2000/svg">
<path d="M40.511 34.8834L40.5834 34.8103V34.7075V10C40.5834 8.60761 40.0303 7.27225 39.0457 6.28769C38.0611 5.30312 36.7258 4.75 35.3334 4.75H15.3334C13.941 4.75 12.6056 5.30312 11.6211 6.28769C10.6365 7.27225 10.0834 8.60761 10.0834 10V40C10.0834 41.3924 10.6365 42.7277 11.6211 43.7123C12.6056 44.6969 13.941 45.25 15.3334 45.25H27.5084H28.1034L27.6869 44.825L26.5844 43.7L26.5838 43.6993C26.2133 43.3242 25.9473 42.8836 25.7815 42.4164L25.7224 42.25H25.5459H15.3334C14.7366 42.25 14.1643 42.0129 13.7424 41.591C13.3204 41.169 13.0834 40.5967 13.0834 40V10C13.0834 9.40326 13.3204 8.83097 13.7424 8.40901C14.1643 7.98705 14.7366 7.75 15.3334 7.75H35.3334C35.9301 7.75 36.5024 7.98705 36.9244 8.40901C37.3463 8.83097 37.5834 9.40326 37.5834 10V37.2325V37.8403L38.011 37.4084L40.511 34.8834ZM19.7779 15.6945C20.2936 15.1788 20.5834 14.4793 20.5834 13.75C20.5834 13.0207 20.2936 12.3212 19.7779 11.8055C19.2622 11.2897 18.5627 11 17.8334 11C17.104 11 16.4046 11.2897 15.8888 11.8055C15.3731 12.3212 15.0834 13.0207 15.0834 13.75C15.0834 14.4793 15.3731 15.1788 15.8888 15.6945C16.4046 16.2103 17.104 16.5 17.8334 16.5C18.5627 16.5 19.2622 16.2103 19.7779 15.6945ZM24.0834 12.25C23.6855 12.25 23.304 12.408 23.0227 12.6893C22.7414 12.9706 22.5834 13.3522 22.5834 13.75C22.5834 14.1478 22.7414 14.5294 23.0227 14.8107C23.304 15.092 23.6855 15.25 24.0834 15.25H34.0834C34.4812 15.25 34.8627 15.092 35.144 14.8107C35.4253 14.5294 35.5834 14.1478 35.5834 13.75C35.5834 13.3522 35.4253 12.9706 35.144 12.6893C34.8627 12.408 34.4812 12.25 34.0834 12.25H24.0834ZM24.0834 22.25C23.6855 22.25 23.304 22.408 23.0227 22.6893C22.7414 22.9706 22.5834 23.3522 22.5834 23.75C22.5834 24.1478 22.7414 24.5294 23.0227 24.8107C23.304 25.092 23.6855 25.25 24.0834 25.25H34.0834C34.4812 25.25 34.8627 25.092 35.144 24.8107C35.4253 24.5294 35.5834 24.1478 35.5834 23.75C35.5834 23.3522 35.4253 22.9706 35.144 22.6893C34.8627 22.408 34.4812 22.25 34.0834 22.25H24.0834ZM23.0227 32.6893C22.7414 32.9706 22.5834 33.3522 22.5834 33.75C22.5834 34.1478 22.7414 34.5294 23.0227 34.8107C23.304 35.092 23.6856 35.25 24.0834 35.25H34.0834C34.4812 35.25 34.8627 35.092 35.144 34.8107C35.4253 34.5294 35.5834 34.1478 35.5834 33.75C35.5834 33.3522 35.4253 32.9706 35.144 32.6893C34.8627 32.408 34.4812 32.25 34.0834 32.25H24.0834C23.6855 32.25 23.304 32.408 23.0227 32.6893ZM17.8334 26.5C18.5627 26.5 19.2622 26.2103 19.7779 25.6945C20.2936 25.1788 20.5834 24.4793 20.5834 23.75C20.5834 23.0207 20.2936 22.3212 19.7779 21.8055C19.2622 21.2897 18.5627 21 17.8334 21C17.104 21 16.4046 21.2897 15.8888 21.8055C15.3731 22.3212 15.0834 23.0207 15.0834 23.75C15.0834 24.4793 15.3731 25.1788 15.8888 25.6945C16.4046 26.2103 17.104 26.5 17.8334 26.5ZM17.8334 36.5C18.5627 36.5 19.2622 36.2103 19.7779 35.6945C20.2936 35.1788 20.5834 34.4793 20.5834 33.75C20.5834 33.0207 20.2936 32.3212 19.7779 31.8055C19.2622 31.2897 18.5627 31 17.8334 31C17.104 31 16.4046 31.2897 15.8888 31.8055C15.3731 32.3212 15.0834 33.0207 15.0834 33.75C15.0834 34.4793 15.3731 35.1788 15.8888 35.6945C16.4046 36.2103 17.104 36.5 17.8334 36.5Z" fill="#5C27C0" stroke="#5C27C0" stroke-width="0.5"/>
<path d="M45.1474 37.115C45.3743 36.8784 45.4992 36.562 45.495 36.2342C45.4908 35.9063 45.358 35.5932 45.1252 35.3624C44.8924 35.1315 44.5782 35.0014 44.2503 35C43.9225 34.9986 43.6072 35.1261 43.3724 35.355L34.2649 44.555L30.1524 40.36C30.0382 40.2401 29.9012 40.1441 29.7495 40.0775C29.5978 40.011 29.4344 39.9753 29.2687 39.9725C29.1031 39.9697 28.9386 39.9998 28.7847 40.0611C28.6308 40.1224 28.4906 40.2137 28.3723 40.3297C28.2541 40.4457 28.16 40.584 28.0956 40.7366C28.0313 40.8893 27.9979 41.0532 27.9974 41.2188C27.997 41.3845 28.0295 41.5486 28.093 41.7016C28.1565 41.8546 28.2498 41.9934 28.3674 42.11L33.1899 47.03C33.3292 47.1721 33.4953 47.285 33.6786 47.3623C33.8619 47.4395 34.0587 47.4796 34.2576 47.48C34.4566 47.4805 34.6536 47.4414 34.8372 47.365C35.0209 47.2886 35.1875 47.1764 35.3274 47.035L45.1474 37.115Z" fill="#AD93DF"/>
</svg>
