<svg width="112" height="112" viewBox="0 0 112 112" fill="none" xmlns="http://www.w3.org/2000/svg">
<g filter="url(#filter0_d_1_145)">
<path d="M14.0026 10H98.0026V94H24.0026C18.4797 94 14.0026 89.5229 14.0026 84V10Z" fill="#5C27C0" shape-rendering="crispEdges"/>
<path d="M36.5982 21C36.046 21 35.5982 21.4477 35.5982 22V26.7018C35.5982 27.254 35.1505 27.7018 34.5982 27.7018H26.0026C25.4503 27.7018 25.0026 28.1495 25.0026 28.7018V34.2632C25.0026 45.2456 27.9093 51.3684 34.895 55.1754C37.492 56.7429 39.889 58.6962 42.0213 60.9825C43.7351 63.0346 45.8253 64.6448 48.1474 65.7018L50.115 66.3814C50.5181 66.5206 50.7885 66.9001 50.7885 67.3266V73.5614C50.7885 74.1137 50.3408 74.5614 49.7885 74.5614H46.7565C41.8806 74.5614 40.2397 75.807 40.2397 79.5088V81C40.2397 81.5523 40.6874 82 41.2397 82H69.714C70.2663 82 70.714 81.5523 70.714 81V79.7719C70.714 76.1404 68.7137 74.5088 64.0878 74.5088H61.1652C60.613 74.5088 60.1652 74.0611 60.1652 73.5088V67.3351C60.1652 66.9045 60.4409 66.5223 60.8494 66.3863L62.8532 65.7193C65.1788 64.6612 67.2697 63.0444 68.9794 60.9825C71.2038 58.6024 73.6938 56.5561 76.387 54.8947C78.4781 53.765 80.3457 52.1749 81.8786 50.219C83.4116 48.263 84.5786 45.9811 85.3105 43.5088C85.808 40.4477 86.0383 37.3394 85.9981 34.2281V28.7193C85.9981 28.167 85.5504 27.7193 84.9981 27.7193H76.3555C75.8032 27.7193 75.3555 27.2716 75.3555 26.7193V22C75.3555 21.4477 74.9078 21 74.3555 21H36.5982ZM54.5607 34.3178C54.9062 33.5099 56.051 33.5084 56.3986 34.3155L58.4203 39.0096C58.5782 39.3764 58.9393 39.614 59.3387 39.614H64.045C64.9275 39.614 65.3774 40.6738 64.7643 41.3087L60.7239 45.4928C60.492 45.733 60.3953 46.0731 60.466 46.3994L61.5966 51.6134C61.7824 52.4701 60.8542 53.1342 60.1033 52.6818L55.9963 50.2077C55.6771 50.0153 55.2774 50.0165 54.9593 50.2107L50.8594 52.7132C50.1088 53.1714 49.1748 52.5072 49.3611 51.6478L50.4876 46.4528C50.5584 46.1261 50.4613 45.7855 50.2288 45.5453L46.1789 41.3622C45.5647 40.7277 46.0143 39.6667 46.8974 39.6667H51.6132C52.0135 39.6667 52.3753 39.4279 52.5327 39.0599L54.5607 34.3178ZM30.6711 35.4989C30.6148 34.9116 31.0765 34.4035 31.6665 34.4035H34.5045C35.0568 34.4035 35.5045 34.8512 35.5045 35.4035V47.6989C35.5045 48.0299 35.2894 48.3092 35.0162 48.1223C34.2958 47.6298 33.119 45.9402 32.207 44.0702C31.5416 42.2301 31.1153 40.2921 30.9411 38.3158L30.6711 35.4989ZM75.446 35.4002C75.4478 34.8492 75.895 34.4035 76.446 34.4035H79.701C80.2995 34.4035 80.7639 34.9257 80.6942 35.5201L80.3721 38.2632C80.2655 41.4761 79.1148 44.5341 77.1371 46.8596C77.0222 47.0354 76.8997 47.2042 76.77 47.3654C76.2708 47.9865 75.4059 47.5515 75.4085 46.7546L75.446 35.4002Z" stroke="#EFE5FF" stroke-width="2" stroke-linecap="round" stroke-linejoin="round"/>
</g>
<defs>
<filter id="filter0_d_1_145" x="0.00256348" y="0" width="112" height="112" filterUnits="userSpaceOnUse" color-interpolation-filters="sRGB">
<feFlood flood-opacity="0" result="BackgroundImageFix"/>
<feColorMatrix in="SourceAlpha" type="matrix" values="0 0 0 0 0 0 0 0 0 0 0 0 0 0 0 0 0 0 127 0" result="hardAlpha"/>
<feOffset dy="4"/>
<feGaussianBlur stdDeviation="7"/>
<feComposite in2="hardAlpha" operator="out"/>
<feColorMatrix type="matrix" values="0 0 0 0 0 0 0 0 0 0 0 0 0 0 0 0 0 0 0.25 0"/>
<feBlend mode="normal" in2="BackgroundImageFix" result="effect1_dropShadow_1_145"/>
<feBlend mode="normal" in="SourceGraphic" in2="effect1_dropShadow_1_145" result="shape"/>
</filter>
</defs>
</svg>
