<svg width="100" height="32" viewBox="0 0 100 32" fill="none" xmlns="http://www.w3.org/2000/svg">
<g clip-path="url(#clip0_1_93)">
<path d="M12.6928 0.5H13.5731C16.6295 0.563742 19.636 1.74297 21.7954 3.83052C20.9981 4.61136 20.1842 5.36032 19.4035 6.14116C18.1909 5.08942 16.7292 4.27671 15.1345 3.98987C12.7758 3.51181 10.2344 3.94206 8.2577 5.23284C6.0983 6.58736 4.63656 8.88206 4.32095 11.3361C3.97213 13.7583 4.68639 16.308 6.33085 18.1884C7.90887 20.021 10.3174 21.1683 12.809 21.248C15.1345 21.3755 17.5597 20.6903 19.254 19.1286C20.5829 18.029 21.1975 16.3558 21.3968 14.7304C18.6394 14.7304 15.882 14.7463 13.1246 14.7304V11.4477H24.7355C25.3335 14.9694 24.4698 18.9374 21.6792 21.4552C19.8188 23.2399 17.2441 24.2917 14.6196 24.4988C12.0782 24.7379 9.45367 24.2757 7.19461 23.0965C4.48706 21.7101 2.32766 19.3676 1.26458 16.6108C0.267933 14.077 0.251322 11.2086 1.18152 8.65897C2.02867 6.33239 3.65652 4.27671 5.74948 2.84252C7.75937 1.42426 10.2012 0.643419 12.6928 0.5Z" fill="#1F1F1F"/>
<path d="M79.3047 1.32812H82.8594V24.084C81.68 24.084 80.4841 24.0999 79.3047 24.0681C79.3213 16.4987 79.3047 8.91342 79.3047 1.32812Z" fill="#1F1F1F"/>
<path d="M32.6392 9.21948C34.8318 8.8211 37.2071 9.26729 39.0177 10.5262C40.6622 11.6417 41.8083 13.3946 42.1571 15.3068C42.6056 17.5219 42.0409 19.9441 40.5459 21.697C38.9346 23.657 36.2935 24.7088 33.7189 24.5494C31.3601 24.4219 29.0679 23.2905 27.6726 21.442C26.0945 19.4023 25.7125 16.5976 26.5763 14.2073C27.44 11.6417 29.8818 9.68161 32.6392 9.21948ZM33.1375 12.2472C32.2405 12.4703 31.41 12.9643 30.812 13.6655C29.2007 15.514 29.3004 18.5258 31.0778 20.2468C32.091 21.2348 33.6192 21.697 35.0311 21.4261C36.3434 21.203 37.4895 20.3584 38.1207 19.2429C39.217 17.3466 38.9014 14.7332 37.2237 13.2512C36.144 12.295 34.566 11.8966 33.1375 12.2472Z" fill="#1F1F1F"/>
<path d="M50.2511 9.22066C52.7594 8.75853 55.5001 9.42782 57.3771 11.117C60.4335 13.7463 60.7657 18.6704 58.1579 21.6981C56.5798 23.6104 54.0218 24.6621 51.4969 24.5506C49.0884 24.4869 46.7131 23.3395 45.2845 21.4432C43.6733 19.3556 43.3245 16.4872 44.238 14.0491C45.1516 11.5632 47.5436 9.66685 50.2511 9.22066ZM50.7495 12.2484C49.8525 12.4715 49.0219 12.9655 48.424 13.6507C46.8293 15.4674 46.8958 18.4314 48.6067 20.1683C49.6199 21.2041 51.198 21.7141 52.6597 21.4272C53.9553 21.1882 55.1181 20.3596 55.7493 19.2441C56.829 17.3318 56.5134 14.7184 54.8191 13.2364C53.7394 12.2803 52.1614 11.8978 50.7495 12.2484Z" fill="#1F1F1F"/>
<path d="M65.1824 10.1454C67.0927 8.99806 69.6341 8.67935 71.6938 9.66735C72.3416 9.93825 72.8732 10.4004 73.3881 10.8625C73.4047 10.4323 73.3881 9.98606 73.4047 9.53986C74.5177 9.5558 75.6306 9.53986 76.7601 9.5558V23.6109C76.7435 25.7303 76.1787 27.9772 74.5841 29.523C72.84 31.2281 70.1656 31.7539 67.7571 31.4033C65.1824 31.0368 62.94 29.2361 61.9433 26.9573C62.94 26.4952 63.9864 26.1287 65.0163 25.6984C65.5977 27.0052 66.777 28.1206 68.2554 28.3756C69.7338 28.6306 71.4447 28.28 72.4081 27.1008C73.438 25.8897 73.438 24.2324 73.3881 22.7504C72.624 23.4675 71.7437 24.1049 70.6806 24.3439C68.3717 24.9654 65.8302 24.2005 64.0529 22.7026C62.2589 21.2046 61.1958 18.894 61.2955 16.5993C61.3453 14.0018 62.8735 11.4999 65.1824 10.1454ZM68.6208 12.1852C67.6076 12.3445 66.6608 12.8863 66.013 13.6353C64.4515 15.4201 64.4515 18.2725 66.0296 20.0254C66.9265 21.0612 68.3717 21.6349 69.767 21.4915C71.0792 21.364 72.2918 20.5672 72.9396 19.4677C74.0359 17.6032 73.8532 15.0695 72.3749 13.4441C71.4613 12.4401 69.9995 11.9461 68.6208 12.1852Z" fill="#1F1F1F"/>
<path d="M87.1279 10.9524C89.1212 9.16767 92.1942 8.56212 94.7522 9.50231C97.1774 10.3788 98.7222 12.5938 99.5029 14.8726C95.8984 16.3068 92.3105 17.725 88.7059 19.1592C89.2042 20.0675 89.9683 20.8962 90.9982 21.2308C92.4433 21.7248 94.1709 21.5495 95.3835 20.6253C95.8652 20.2747 96.2472 19.8126 96.6126 19.3664C97.5262 19.956 98.4398 20.5297 99.3534 21.1193C98.0578 22.9837 95.8818 24.2904 93.5397 24.4976C90.9484 24.8004 88.191 23.8443 86.5133 21.9001C83.7559 18.8405 84.0217 13.7093 87.1279 10.9524ZM88.9053 13.9005C88.3405 14.6813 88.1079 15.6375 88.1246 16.5777C90.5331 15.6215 92.9417 14.6654 95.3502 13.6933C94.9516 12.801 93.9882 12.2592 93.0081 12.1157C91.4301 11.8448 89.7856 12.6575 88.9053 13.9005Z" fill="#1F1F1F"/>
</g>
<defs>
<clipPath id="clip0_1_93">
<rect width="99" height="31" fill="white" transform="translate(0.5 0.5)"/>
</clipPath>
</defs>
</svg>
