<svg width="112" height="112" viewBox="0 0 112 112" fill="none" xmlns="http://www.w3.org/2000/svg">
<g filter="url(#filter0_d_1_136)">
<g clip-path="url(#clip0_1_136)">
<path d="M13.9974 28C13.9974 22.4772 18.4746 18 23.9974 18H97.9974V102H13.9974V28Z" fill="#5C27C0"/>
<path d="M56.4974 42.3333H56.4986C58.6081 42.3359 60.4388 43.0944 61.9363 44.5845C63.4338 46.0745 64.1971 47.8973 64.1974 49.9988C64.1974 49.9992 64.1974 49.9996 64.1974 50H63.1974C63.1997 51.8356 62.5442 53.4056 61.231 54.71C59.9178 56.0144 58.3399 56.6667 56.4974 56.6667V42.3333ZM56.4974 42.3333C54.3889 42.3333 52.5587 43.0925 51.0613 44.5851C49.5647 46.0768 48.8 47.8991 48.7974 49.9988V50C48.7974 52.1025 49.5623 53.9267 51.0619 55.4189C52.5611 56.9106 54.3909 57.6689 56.4974 57.6667V42.3333ZM42.0974 70V71H43.0974H69.8974H70.8974V70V68.1667C70.8974 65.2583 69.4323 62.9726 66.7262 61.3521C64.064 59.7579 60.6292 59.0023 56.498 59H56.4974C52.3659 59 48.9306 59.7556 46.2681 61.3524C43.5628 62.9749 42.0974 65.2603 42.0974 68.1667V70ZM68.8974 83.3333V89H44.0974V83.3333V82.3333H43.0974H29.6974C28.1204 82.3333 26.7969 81.7866 25.6726 80.6678C24.5485 79.5493 23.9995 78.2334 23.9974 76.666V36.6667C23.9974 35.1026 24.5457 33.7882 25.672 32.6695C26.7992 31.5497 28.1234 31.002 29.6981 31H83.2974C84.874 31 86.1987 31.5475 87.3257 32.6689C88.4524 33.79 88.9993 35.1043 88.9974 36.6654V36.6667V76.6667C88.9974 78.2314 88.4498 79.5473 87.325 80.6684C86.2011 81.7887 84.8773 82.3352 83.2986 82.3333H83.2974H69.8974H68.8974V83.3333Z" stroke="#EFE5FF" stroke-width="2"/>
</g>
</g>
<defs>
<filter id="filter0_d_1_136" x="-0.00256348" y="0" width="112" height="112" filterUnits="userSpaceOnUse" color-interpolation-filters="sRGB">
<feFlood flood-opacity="0" result="BackgroundImageFix"/>
<feColorMatrix in="SourceAlpha" type="matrix" values="0 0 0 0 0 0 0 0 0 0 0 0 0 0 0 0 0 0 127 0" result="hardAlpha"/>
<feOffset dy="-4"/>
<feGaussianBlur stdDeviation="7"/>
<feComposite in2="hardAlpha" operator="out"/>
<feColorMatrix type="matrix" values="0 0 0 0 0 0 0 0 0 0 0 0 0 0 0 0 0 0 0.25 0"/>
<feBlend mode="normal" in2="BackgroundImageFix" result="effect1_dropShadow_1_136"/>
<feBlend mode="normal" in="SourceGraphic" in2="effect1_dropShadow_1_136" result="shape"/>
</filter>
<clipPath id="clip0_1_136">
<path d="M13.9974 28C13.9974 22.4772 18.4746 18 23.9974 18H97.9974V102H13.9974V28Z" fill="white"/>
</clipPath>
</defs>
</svg>
