<svg width="30" height="19" viewBox="0 0 30 19" fill="none" xmlns="http://www.w3.org/2000/svg">
<path d="M18.9052 16.5277V18.7671H0.989624V16.5277C0.989624 13.5537 6.97343 12.0488 9.94741 12.0488C12.9214 12.0488 18.9052 13.5537 18.9052 16.5277Z" fill="#AD93DF"/>
<path d="M6.78036 2.1634C7.62031 1.32344 8.75954 0.851562 9.94741 0.851562C10.5356 0.851562 11.118 0.967412 11.6614 1.1925C12.2048 1.41758 12.6986 1.7475 13.1145 2.1634C13.5304 2.5793 13.8603 3.07305 14.0854 3.61646C14.3105 4.15986 14.4263 4.74228 14.4263 5.33046C14.4263 5.91863 14.3105 6.50105 14.0854 7.04446C13.8603 7.58786 13.5304 8.08161 13.1145 8.49752C12.6986 8.91342 12.2048 9.24333 11.6614 9.46842C11.118 9.6935 10.5356 9.80935 9.94741 9.80935C8.75954 9.80935 7.62031 9.33747 6.78036 8.49752C6.36445 8.08161 6.03454 7.58786 5.80945 7.04446C5.58437 6.50105 5.46852 5.91863 5.46852 5.33046C5.46852 4.14258 5.9404 3.00336 6.78036 2.1634Z" fill="#AD93DF"/>
<path d="M18.9052 2.64312V0.851562H29.6546V2.64312H18.9052Z" fill="#AD93DF"/>
<path d="M18.9052 6.22624V4.43468H29.6546V6.22624H18.9052Z" fill="#AD93DF"/>
<path d="M18.9052 9.80935V8.0178H26.0714V9.80935H18.9052Z" fill="#AD93DF"/>
</svg>
