<svg width="22" height="14" viewBox="0 0 22 14" fill="none" xmlns="http://www.w3.org/2000/svg">
<path fill-rule="evenodd" clip-rule="evenodd" d="M0 2C0 1.46957 0.210714 0.96086 0.585787 0.585787C0.96086 0.210714 1.46957 0 2 0H4C4.53043 0 5.03914 0.210714 5.41421 0.585787C5.78929 0.96086 6 1.46957 6 2V4C6 4.53043 5.78929 5.03914 5.41421 5.41421C5.03914 5.78929 4.53043 6 4 6H2C1.46957 6 0.96086 5.78929 0.585787 5.41421C0.210714 5.03914 0 4.53043 0 4V2ZM4 2V4H2V2H4ZM10 0C9.46957 0 8.96086 0.210714 8.58579 0.585787C8.21071 0.96086 8 1.46957 8 2V4C8 4.53043 8.21071 5.03914 8.58579 5.41421C8.96086 5.78929 9.46957 6 10 6H12C12.5304 6 13.0391 5.78929 13.4142 5.41421C13.7893 5.03914 14 4.53043 14 4V2C14 1.46957 13.7893 0.96086 13.4142 0.585787C13.0391 0.210714 12.5304 0 12 0H10ZM12 2H10V4H12V2ZM16 2C16 1.46957 16.2107 0.96086 16.5858 0.585787C16.9609 0.210714 17.4696 0 18 0H20C20.5304 0 21.0391 0.210714 21.4142 0.585787C21.7893 0.96086 22 1.46957 22 2V4C22 4.53043 21.7893 5.03914 21.4142 5.41421C21.0391 5.78929 20.5304 6 20 6H18C17.4696 6 16.9609 5.78929 16.5858 5.41421C16.2107 5.03914 16 4.53043 16 4V2ZM18 2H20V4H18V2ZM2 8C1.46957 8 0.96086 8.21071 0.585787 8.58579C0.210714 8.96086 0 9.46957 0 10V12C0 12.5304 0.210714 13.0391 0.585787 13.4142C0.96086 13.7893 1.46957 14 2 14H4C4.53043 14 5.03914 13.7893 5.41421 13.4142C5.78929 13.0391 6 12.5304 6 12V10C6 9.46957 5.78929 8.96086 5.41421 8.58579C5.03914 8.21071 4.53043 8 4 8H2ZM2 10V12H4V10H2ZM8 10C8 9.46957 8.21071 8.96086 8.58579 8.58579C8.96086 8.21071 9.46957 8 10 8H12C12.5304 8 13.0391 8.21071 13.4142 8.58579C13.7893 8.96086 14 9.46957 14 10V12C14 12.5304 13.7893 13.0391 13.4142 13.4142C13.0391 13.7893 12.5304 14 12 14H10C9.46957 14 8.96086 13.7893 8.58579 13.4142C8.21071 13.0391 8 12.5304 8 12V10ZM10 10H12V12H10V10Z" fill="#AD93DF"/>
</svg>
